<svg width="20" height="18" viewBox="0 0 20 18" fill="none" xmlns="http://www.w3.org/2000/svg">
<path d="M17.5699 2.44C18.4865 3.36024 19.0011 4.60616 19.0011 5.905C19.0011 7.20384 18.4865 8.44976 17.5699 9.37L9.99986 17L2.42986 9.37C1.74911 8.68465 1.28564 7.81371 1.09747 6.86623C0.909306 5.91874 1.00481 4.9368 1.37202 4.04333C1.73923 3.14985 2.36183 2.38455 3.16189 1.84321C3.96195 1.30188 4.90391 1.00857 5.86986 1C7.16151 1.00784 8.39781 1.52536 9.30986 2.44C9.57587 2.70322 9.80769 2.99888 9.99986 3.32C10.192 2.99888 10.4239 2.70322 10.6899 2.44C11.1392 1.98405 11.6748 1.62199 12.2653 1.37486C12.8559 1.12774 13.4897 1.00047 14.1299 1.00047C14.77 1.00047 15.4038 1.12774 15.9944 1.37486C16.5849 1.62199 17.1205 1.98405 17.5699 2.44V2.44Z" stroke="#303E65" stroke-width="2" stroke-linecap="round" stroke-linejoin="round"/>
</svg>
