<svg width="18" height="16" viewBox="0 0 18 16" fill="none" xmlns="http://www.w3.org/2000/svg">
<path d="M16.5699 1.44C17.4865 2.36024 18.0011 3.60616 18.0011 4.905C18.0011 6.20384 17.4865 7.44976 16.5699 8.37L8.99986 16L1.42986 8.37C0.749108 7.68465 0.285638 6.81371 0.0974718 5.86623C-0.090694 4.91874 0.00480559 3.9368 0.372016 3.04333C0.739226 2.14985 1.36183 1.38455 2.16189 0.843215C2.96195 0.30188 3.90391 0.0085692 4.86986 0C6.16151 0.00783691 7.39781 0.52536 8.30986 1.44C8.57587 1.70322 8.80769 1.99888 8.99986 2.32C9.19203 1.99888 9.42385 1.70322 9.68986 1.44C10.1392 0.984055 10.6748 0.621993 11.2653 0.374864C11.8559 0.127736 12.4897 0.000472069 13.1299 0.000472069C13.77 0.000472069 14.4038 0.127736 14.9944 0.374864C15.5849 0.621993 16.1205 0.984055 16.5699 1.44Z" fill="#FE4800"/>
</svg>
