<svg width="20" height="20" viewBox="0 0 20 20" fill="none" xmlns="http://www.w3.org/2000/svg">
<path d="M14 0C15.1046 0 16 0.895431 16 2L2 2L2 13.1765C0.895432 13.1765 0 12.281 0 11.1765V2C0 0.895428 0.895431 0 2 0H14Z" fill="white"/>
<path d="M12 20L9.33333 17.1765H6C4.89543 17.1765 4 16.281 4 15.1765V6C4 4.89543 4.89543 4 6 4H18C19.1046 4 20 4.89543 20 6V15.1765C20 16.281 19.1046 17.1765 18 17.1765H14.6667L12 20ZM13.8046 15.1765L18 15.1765V6L6 6V15.1765H10.1954L12 17.0872L13.8046 15.1765Z" fill="white"/>
</svg>
