<svg width="18" height="16" viewBox="0 0 18 16" fill="none" xmlns="http://www.w3.org/2000/svg"><path d="M4.35 12.775c-1.858-1.217-3.058-3.05-3.058-4.658 0-2.734 3.45-6.084 7.708-6.084 1.742 0 3.358.559 4.658 1.425M15.541 5.175c.743.942 1.175 1.983 1.175 2.942 0 2.733-3.458 6.083-7.716 6.083-.759 0-1.5-.108-2.192-.3" stroke="#7583AA" stroke-width="1.5" stroke-linecap="round" stroke-linejoin="round"/><path d="M7.138 9.972a2.6 2.6 0 01-.77-1.857 2.633 2.633 0 014.494-1.868M11.591 8.583A2.631 2.631 0 019.477 10.7M15.576 1.542L2.431 14.686" stroke="#7583AA" stroke-width="1.5" stroke-linecap="round" stroke-linejoin="round"/></svg>