<svg width="38" height="38" viewBox="0 0 38 38" fill="none" xmlns="http://www.w3.org/2000/svg"><path fill-rule="evenodd" clip-rule="evenodd" d="M37.333 31.833a5.5 5.5 0 01-5.5 5.5H6.167a5.5 5.5 0 01-5.5-5.5V6.167a5.5 5.5 0 015.5-5.5H13.5a1.832 1.832 0 010 3.665l-7.334.001c-1.013 0-1.834.821-1.834 1.834V30.51l7.675-10.742c.576-.806 1.675-1 2.484-.477l.182.134 9.432 7.858 2.535-3.8a1.834 1.834 0 012.652-.43l.17.15 4.204 4.203V24.5a1.833 1.833 0 013.666 0v7.333zm-23.49-8.327l-7.258 10.16h25.248c.787 0 1.458-.494 1.718-1.19l-5.1-5.098-2.425 3.639a1.834 1.834 0 01-2.527.52l-.173-.128-9.483-7.903zM28.167.666C29.179.667 30 1.489 30 2.5V8h5.5a1.833 1.833 0 010 3.667H30v5.5a1.833 1.833 0 11-3.667 0v-5.5h-5.5a1.833 1.833 0 010-3.667h5.5V2.5c0-1.012.821-1.833 1.834-1.833zM11.667 8a3.667 3.667 0 110 7.333 3.667 3.667 0 010-7.333z" fill="#303E65"/></svg>