<svg width="18" height="16" viewBox="0 0 18 16" fill="none" xmlns="http://www.w3.org/2000/svg">
<path d="M4.34984 12.7749C2.4915 11.5582 1.2915 9.72487 1.2915 8.11654C1.2915 5.3832 4.7415 2.0332 8.99984 2.0332C10.7415 2.0332 12.3582 2.59154 13.6582 3.4582" stroke="#7583AA" stroke-width="1.5" stroke-linecap="round" stroke-linejoin="round"/>
<path d="M15.5414 5.17505C16.2839 6.11672 16.7164 7.15838 16.7164 8.11672C16.7164 10.85 13.2581 14.2 8.99977 14.2C8.24144 14.2 7.50061 14.0917 6.80811 13.9" stroke="#7583AA" stroke-width="1.5" stroke-linecap="round" stroke-linejoin="round"/>
<path d="M7.13804 9.9724C6.6422 9.48157 6.3647 8.8124 6.3672 8.1149C6.36387 6.66074 7.54054 5.47907 8.99554 5.47657C9.69554 5.4749 10.3672 5.7524 10.8622 6.2474" stroke="#7583AA" stroke-width="1.5" stroke-linecap="round" stroke-linejoin="round"/>
<path d="M11.5912 8.58252C11.3962 9.65919 10.5537 10.5034 9.47705 10.7009" stroke="#7583AA" stroke-width="1.5" stroke-linecap="round" stroke-linejoin="round"/>
<path d="M15.5762 1.5415L2.43115 14.6865" stroke="#7583AA" stroke-width="1.5" stroke-linecap="round" stroke-linejoin="round"/>
</svg>
