<svg width="16" height="16" viewBox="0 0 16 16" fill="none" xmlns="http://www.w3.org/2000/svg">
<path fill-rule="evenodd" clip-rule="evenodd" d="M1.0625 8C1.0625 13.2027 2.79725 14.9375 8 14.9375C13.2027 14.9375 14.9375 13.2027 14.9375 8C14.9375 2.79725 13.2027 1.0625 8 1.0625C2.79725 1.0625 1.0625 2.79725 1.0625 8Z" stroke="white" stroke-width="1.5" stroke-linecap="round" stroke-linejoin="round"/>
<path fill-rule="evenodd" clip-rule="evenodd" d="M6.94887 5.58808C6.94887 6.31783 6.35787 6.90883 5.62812 6.90883C4.89912 6.90883 4.30737 6.31783 4.30737 5.58808C4.30737 4.85833 4.89912 4.26733 5.62812 4.26733C6.35787 4.26733 6.94887 4.85833 6.94887 5.58808Z" stroke="white" stroke-width="1.5" stroke-linecap="round" stroke-linejoin="round"/>
<path d="M14.8401 9.99977C14.1794 9.32027 13.2449 7.94702 11.5281 7.94702C9.81136 7.94702 9.77386 10.9755 8.02186 10.9755C6.26911 10.9755 5.56336 9.94727 4.42111 10.4843C3.27961 11.0205 2.34961 13.155 2.34961 13.155" stroke="white" stroke-width="1.5" stroke-linecap="round" stroke-linejoin="round"/>
</svg>
