<svg width="28" height="32" viewBox="0 0 28 32" fill="none" xmlns="http://www.w3.org/2000/svg"><path d="M9.792 5.458c.288-.45.468-.99.468-1.548C10.26 1.876 8.604.4 6.39.4H1.53c-.288 0-.45.162-.45.45v11.7c0 .288.162.45.45.45h6.372c2.286 0 3.978-1.692 3.978-3.96 0-1.584-.828-2.88-2.088-3.582zM6.39 3.1c.594 0 .99.396.99.99 0 .288-.126.594-.36.81H3.96V3.1h2.43zm1.152 7.2H3.96V7.42h3.6C8.586 7.42 9 8.05 9 8.86c0 .81-.414 1.44-1.458 1.44zM25.552.4H23.14c-.252 0-.432.108-.522.342l-2.916 6.93-2.916-6.93c-.09-.234-.27-.342-.522-.342h-2.412c-.288 0-.45.162-.45.45v11.7c0 .288.162.45.45.45h1.98c.288 0 .45-.162.45-.45V5.278l2.286 5.418c.09.234.27.342.522.342h1.224c.252 0 .432-.108.522-.342l2.286-5.418v7.272c0 .288.162.45.45.45h1.98c.288 0 .45-.162.45-.45V.85c0-.288-.162-.45-.45-.45zM7.092 31.252c2.898 0 5.364-1.836 6.066-4.464.072-.288-.09-.468-.396-.468h-2.124c-.252 0-.396.126-.504.36-.504 1.098-1.674 1.764-3.042 1.764-2.232 0-3.672-1.494-3.672-3.744s1.44-3.744 3.672-3.744c1.368 0 2.538.666 3.042 1.764.108.234.252.36.504.36h2.124c.306 0 .468-.198.396-.504-.738-2.628-3.186-4.428-6.066-4.428C3.294 18.148.54 20.992.54 24.7c0 3.708 2.754 6.552 6.552 6.552zm13.447 0c3.618 0 6.552-2.844 6.552-6.552 0-3.708-2.934-6.552-6.552-6.552-3.618 0-6.552 2.844-6.552 6.552 0 3.708 2.934 6.552 6.552 6.552zm0-2.808c-2.052 0-3.672-1.494-3.672-3.744s1.62-3.744 3.672-3.744 3.672 1.494 3.672 3.744-1.62 3.744-3.672 3.744z" fill="#7583AA"/></svg>