<svg width="18" height="18" viewBox="0 0 18 18" fill="none" xmlns="http://www.w3.org/2000/svg"><path d="M2.238 11.902a3.001 3.001 0 01-.795-5.467c.328-.2.557-.551.557-.935A5.5 5.5 0 0110.559.928c.371.25.855.275 1.287.158A2.503 2.503 0 0115 3.5c0 .338.197.667.51.795a4.001 4.001 0 01.294 7.276l-.694 5.553a1 1 0 01-.993.876H3.883a1 1 0 01-.993-.876l-.652-5.222zM4 5.5c0 1.19-.69 2.14-1.518 2.644A1 1 0 003 10h11a2 2 0 00.754-3.853C13.6 5.676 13 4.55 13 3.5a.5.5 0 00-.632-.483c-.81.22-1.935.235-2.923-.428A3.5 3.5 0 004 5.5zm.266 6.5l.5 4H6v-4H4.266zM10 16v-4H8v4h2zm2 0h1.234l.5-4H12v4z" fill="#fff"/></svg>