<svg width="21" height="24" viewBox="0 0 21 24" fill="none" xmlns="http://www.w3.org/2000/svg"><path d="M15.111.127A.429.429 0 0014.803 0H3.981c-1.13 0-2.045.909-2.045 2.024v9.06H1.5c-.827 0-1.5.666-1.5 1.485v3.94c0 .82.673 1.486 1.5 1.486h.436v3.98c0 1.119.919 2.025 2.045 2.025h14.974c1.13 0 2.045-.909 2.045-2.024V6.138a.427.427 0 00-.128-.305L15.112.127zM1.5 17.131a.627.627 0 01-.63-.624V12.57c0-.345.282-.624.63-.624h9.59c.348 0 .63.28.63.624v3.941a.627.627 0 01-.63.624H1.5v-.003zm18.63 4.842c0 .64-.527 1.163-1.174 1.163H3.98a1.171 1.171 0 01-1.175-1.163v-3.98h8.284c.827 0 1.5-.667 1.5-1.486V12.57c0-.819-.673-1.485-1.5-1.485H2.803v-9.06c0-.64.528-1.163 1.175-1.163h10.39v3.68c0 1.117.917 2.023 2.044 2.023h3.716v15.409h.003z" fill="#2E3A59"/><path d="M3.906 13.544c-.111-.03-.346-.044-.705-.044H2.25v3h.594v-1.13h.386c.268 0 .473-.014.616-.045a.83.83 0 00.556-.438c.066-.127.098-.281.098-.463 0-.24-.057-.433-.17-.585a.778.778 0 00-.424-.295zm-.087 1.12a.385.385 0 01-.186.146c-.078.03-.235.046-.47.046h-.324v-.849h.286c.214 0 .357.006.427.02a.395.395 0 01.332.402.385.385 0 01-.065.234zM7.159 13.834a.898.898 0 00-.406-.276 1.715 1.715 0 00-.511-.058H5.25v3h1.021c.2 0 .361-.022.48-.064a.938.938 0 00.38-.24c.124-.134.22-.31.287-.529.055-.18.082-.391.082-.637 0-.281-.03-.518-.089-.708a1.243 1.243 0 00-.252-.488zm-.272 1.715a.64.64 0 01-.143.29.485.485 0 01-.22.123c-.067.02-.176.028-.33.028H5.79v-1.986h.245c.222 0 .37.009.445.028a.512.512 0 01.252.14.693.693 0 01.153.29c.037.124.055.303.055.535.002.235-.015.42-.052.552zM8.25 16.5h.664v-1.275h1.369v-.508h-1.37v-.71H10.5V13.5H8.25v3z" fill="#2E3A59"/></svg>