<svg width="32" height="32" viewBox="0 0 32 32" fill="none" xmlns="http://www.w3.org/2000/svg">
<path d="M25.7 9.3L18.7 2.3C18.5 2.1 18.3 2 18 2H8C6.9 2 6 2.9 6 4V28C6 29.1 6.9 30 8 30H24C25.1 30 26 29.1 26 28V10C26 9.7 25.9 9.5 25.7 9.3ZM18 4.4L23.6 10H18V4.4ZM24 28H8V4H16V10C16 11.1 16.9 12 18 12H24V28Z" fill="white"/>
<path d="M9 6.5C9 6.22386 9.22386 6 9.5 6H13.5C13.7761 6 14 6.22386 14 6.5V6.5C14 6.77614 13.7761 7 13.5 7H9.5C9.22386 7 9 6.77614 9 6.5V6.5Z" fill="white"/>
<path d="M9 8.5C9 8.22386 9.22386 8 9.5 8H13.5C13.7761 8 14 8.22386 14 8.5V8.5C14 8.77614 13.7761 9 13.5 9H9.5C9.22386 9 9 8.77614 9 8.5V8.5Z" fill="white"/>
<path d="M9 10.5C9 10.2239 9.22386 10 9.5 10H13.5C13.7761 10 14 10.2239 14 10.5V10.5C14 10.7761 13.7761 11 13.5 11H9.5C9.22386 11 9 10.7761 9 10.5V10.5Z" fill="white"/>
<path d="M16.4739 21.6148V22.9734C15.888 22.7654 15.2609 22.7016 14.6453 22.7874C14.0297 22.8731 13.4436 23.106 12.9362 23.4663C12.4288 23.8267 12.0149 24.304 11.7293 24.8583C11.4437 25.4125 11.2947 26.0275 11.2948 26.6516L10 26.6509C9.9998 25.8571 10.1806 25.0738 10.5285 24.361C10.8764 23.6481 11.3821 23.0248 12.007 22.5386C12.632 22.0524 13.3594 21.7163 14.1337 21.556C14.9079 21.3958 15.7085 21.4163 16.4739 21.6148ZM15.1791 20.8009C13.033 20.8009 11.2948 19.0554 11.2948 16.9004C11.2948 14.7454 13.033 13 15.1791 13C17.3252 13 19.0634 14.7454 19.0634 16.9004C19.0634 19.0554 17.3252 20.8009 15.1791 20.8009ZM15.1791 19.5007C16.6098 19.5007 17.7687 18.3371 17.7687 16.9004C17.7687 15.4638 16.6098 14.3001 15.1791 14.3001C13.7484 14.3001 12.5896 15.4638 12.5896 16.9004C12.5896 18.3371 13.7484 19.5007 15.1791 19.5007ZM19.7108 23.7821L21.0839 22.4027L22 23.3225L20.6262 24.7013L22 26.0801L21.0839 27L19.7108 25.6205L18.3377 27L17.4217 26.0801L18.7954 24.7013L17.4217 23.3225L18.3377 22.4027L19.7108 23.7821Z" fill="white"/>
</svg>
