<svg width="512" height="512" viewBox="0 0 512 512" fill="none" xmlns="http://www.w3.org/2000/svg">
    <g clip-path="url(#clip0_102_11268)">
        <path d="M487.822 386.765L411 176.572V53.6031C411 48.0801 406.523 43.6031 401 43.6031H362.401L348.866 6.56712C347.955 4.07612 346.093 2.04812 343.687 0.931116C341.281 -0.185884 338.531 -0.302885 336.041 0.607116L218.401 43.6031H75.305C69.782 43.6031 65.305 48.0801 65.305 53.6031V99.5571L30.137 112.41C24.949 114.306 22.282 120.048 24.177 125.235L65.305 237.765V458.397C65.305 463.92 69.782 468.397 75.305 468.397H149.597L163.133 505.433C164.044 507.924 165.906 509.952 168.312 511.069C169.645 511.688 171.083 512 172.526 512C173.686 512 174.848 511.798 175.959 511.393L293.599 468.397H401.002C406.525 468.397 411.002 463.92 411.002 458.397V425.488L481.864 399.589C487.05 397.694 489.718 391.952 487.822 386.765ZM65.305 179.504L46.394 127.763L65.305 120.851V179.504ZM333.514 22.8251L341.108 43.6031H276.664L333.514 22.8251ZM178.485 489.176L170.891 468.398H235.335L178.485 489.176ZM391 448.398H85.305V63.6031H391V448.398ZM411 404.195V234.835L465.604 384.238L411 404.195Z" fill="white"/>
        <path d="M359.046 377.488L290.54 308.981C286.635 305.076 280.303 305.076 276.397 308.981L268.296 317.082L253.455 302.241C263.52 289.006 269.511 272.512 269.511 254.64C269.511 211.19 234.162 175.842 190.713 175.842C147.264 175.842 111.915 211.191 111.915 254.64C111.915 298.089 147.264 333.438 190.713 333.438C209.095 333.438 226.014 327.094 239.433 316.503L254.155 331.225L246.054 339.326C242.149 343.231 242.149 349.563 246.054 353.469L314.56 421.975C316.513 423.928 319.072 424.904 321.631 424.904C324.19 424.904 326.75 423.928 328.702 421.975L359.046 391.631C362.951 387.726 362.951 381.394 359.046 377.488ZM190.713 313.437C158.292 313.437 131.915 287.061 131.915 254.639C131.915 222.218 158.292 195.841 190.713 195.841C223.134 195.841 249.511 222.218 249.511 254.639C249.511 287.06 223.134 313.437 190.713 313.437ZM321.631 400.76L267.267 346.396L283.469 330.194L337.833 384.558L321.631 400.76Z" fill="white"/>
        <path d="M341.659 103.859C341.529 103.229 341.339 102.599 341.089 101.989C340.839 101.389 340.529 100.809 340.169 100.269C339.809 99.7194 339.389 99.2095 338.929 98.7495C338.469 98.2895 337.959 97.8695 337.409 97.4995C336.869 97.1395 336.289 96.8295 335.679 96.5795C335.079 96.3295 334.449 96.1395 333.809 96.0095C332.519 95.7495 331.189 95.7495 329.909 96.0095C329.269 96.1395 328.639 96.3295 328.029 96.5795C327.429 96.8295 326.849 97.1395 326.309 97.4995C325.759 97.8695 325.249 98.2895 324.789 98.7495C324.329 99.2095 323.909 99.7194 323.539 100.269C323.179 100.809 322.869 101.389 322.619 101.989C322.369 102.599 322.179 103.229 322.049 103.859C321.919 104.509 321.859 105.169 321.859 105.819C321.859 106.469 321.919 107.129 322.049 107.769C322.179 108.409 322.369 109.039 322.619 109.639C322.869 110.249 323.179 110.829 323.539 111.369C323.909 111.919 324.329 112.429 324.789 112.889C325.249 113.349 325.759 113.769 326.309 114.129C326.849 114.489 327.429 114.799 328.029 115.049C328.639 115.299 329.269 115.489 329.909 115.619C330.549 115.749 331.209 115.819 331.859 115.819C332.509 115.819 333.169 115.749 333.809 115.619C334.449 115.489 335.079 115.299 335.679 115.049C336.289 114.799 336.869 114.489 337.409 114.129C337.959 113.769 338.469 113.349 338.929 112.889C339.389 112.429 339.809 111.919 340.169 111.369C340.529 110.829 340.839 110.249 341.089 109.639C341.339 109.039 341.529 108.409 341.659 107.769C341.789 107.129 341.859 106.469 341.859 105.819C341.859 105.169 341.789 104.509 341.659 103.859Z" fill="white"/>
        <path d="M297.263 95.8184H144.447C138.924 95.8184 134.447 100.295 134.447 105.818C134.447 111.341 138.924 115.818 144.447 115.818H297.263C302.786 115.818 307.263 111.341 307.263 105.818C307.263 100.295 302.786 95.8184 297.263 95.8184Z" fill="white"/>
        <path d="M154.249 140.459C154.119 139.819 153.929 139.189 153.679 138.589C153.429 137.979 153.119 137.399 152.759 136.859C152.399 136.309 151.979 135.799 151.519 135.339C151.059 134.879 150.549 134.459 149.999 134.099C149.459 133.739 148.879 133.429 148.269 133.179C147.669 132.929 147.039 132.729 146.399 132.609C145.109 132.349 143.779 132.349 142.489 132.609C141.859 132.729 141.229 132.929 140.619 133.179C140.019 133.429 139.439 133.739 138.899 134.099C138.349 134.459 137.839 134.879 137.379 135.339C136.919 135.799 136.499 136.309 136.129 136.859C135.769 137.399 135.459 137.979 135.209 138.589C134.959 139.189 134.769 139.819 134.639 140.459C134.509 141.099 134.449 141.759 134.449 142.409C134.449 143.059 134.509 143.719 134.639 144.359C134.769 144.999 134.959 145.629 135.209 146.229C135.459 146.839 135.769 147.419 136.129 147.959C136.499 148.509 136.919 149.019 137.379 149.479C137.839 149.939 138.349 150.359 138.899 150.719C139.439 151.079 140.019 151.389 140.619 151.639C141.229 151.889 141.859 152.089 142.489 152.209C143.139 152.339 143.799 152.409 144.449 152.409C145.099 152.409 145.759 152.339 146.399 152.209C147.039 152.089 147.669 151.889 148.269 151.639C148.879 151.389 149.459 151.079 149.999 150.719C150.549 150.359 151.059 149.939 151.519 149.479C151.979 149.019 152.399 148.509 152.759 147.959C153.119 147.419 153.429 146.839 153.679 146.229C153.929 145.629 154.119 144.999 154.249 144.359C154.379 143.719 154.449 143.059 154.449 142.409C154.449 141.759 154.379 141.099 154.249 140.459Z" fill="white"/>
        <path d="M331.858 132.41H179.041C173.518 132.41 169.041 136.887 169.041 142.41C169.041 147.933 173.518 152.41 179.041 152.41H331.858C337.381 152.41 341.858 147.933 341.858 142.41C341.858 136.887 337.381 132.41 331.858 132.41Z" fill="white"/>
        <path d="M204.855 254.638L217.647 241.846C221.553 237.941 221.553 231.609 217.648 227.704C213.743 223.799 207.411 223.799 203.505 227.704L190.713 240.496L177.921 227.704C174.016 223.799 167.684 223.799 163.778 227.704C159.873 231.609 159.873 237.941 163.778 241.847L176.57 254.639L163.779 267.43C159.874 271.335 159.874 277.667 163.779 281.573C165.732 283.526 168.291 284.502 170.85 284.502C173.409 284.502 175.969 283.526 177.921 281.573L190.713 268.781L203.505 281.573C205.458 283.526 208.017 284.502 210.576 284.502C213.135 284.502 215.695 283.526 217.647 281.573C221.552 277.668 221.552 271.336 217.647 267.43L204.855 254.638Z" fill="white"/>
    </g>
    <defs>
        <clipPath id="clip0_102_11268">
            <rect width="512" height="512" fill="white"/>
        </clipPath>
    </defs>
</svg>
