<svg width="683" height="683" viewBox="0 0 683 683" fill="none" xmlns="http://www.w3.org/2000/svg">
    <g clip-path="url(#clip0_106_12318)">
        <path d="M341.333 0C153.115 0 0 153.115 0 341.333C0 529.552 153.115 682.667 341.333 682.667C529.552 682.667 682.667 529.552 682.667 341.333C682.667 153.115 529.552 0 341.333 0Z" fill="#439BB7"/>
        <path d="M514.333 269L329.443 453.885C323.896 459.432 316.615 462.224 309.333 462.224C302.052 462.224 294.771 459.432 289.224 453.885L196.781 361.443C185.656 350.323 185.656 332.344 196.781 321.224C207.901 310.099 225.875 310.099 237 321.224L309.333 393.557L474.115 228.781C485.234 217.656 503.208 217.656 514.333 228.781C525.453 239.901 525.453 257.875 514.333 269Z" fill="#FAFAFA"/>
    </g>
    <defs>
        <clipPath id="clip0_106_12318">
            <rect width="682.667" height="682.667" fill="white"/>
        </clipPath>
    </defs>
</svg>
