<svg width="16" height="16" viewBox="0 0 16 16" fill="none" xmlns="http://www.w3.org/2000/svg"><path clip-rule="evenodd" d="M1.063 8c0 5.203 1.734 6.938 6.937 6.938S14.938 13.203 14.938 8c0-5.203-1.735-6.938-6.938-6.938-5.203 0-6.938 1.735-6.938 6.938z" stroke="#fff" stroke-width="1.5" stroke-linecap="round" stroke-linejoin="round"/><path clip-rule="evenodd" d="M6.949 5.588a1.32 1.32 0 11-2.64 0 1.32 1.32 0 012.64 0z" stroke="#fff" stroke-width="1.5" stroke-linecap="round" stroke-linejoin="round"/><path d="M14.84 10c-.66-.68-1.595-2.053-3.312-2.053-1.717 0-1.754 3.029-3.506 3.029-1.753 0-2.459-1.029-3.6-.492-1.142.537-2.072 2.671-2.072 2.671" stroke="#fff" stroke-width="1.5" stroke-linecap="round" stroke-linejoin="round"/></svg>