<svg width="42" height="42" viewBox="0 0 42 42" fill="none" xmlns="http://www.w3.org/2000/svg">
<path fill-rule="evenodd" clip-rule="evenodd" d="M12.6875 29.75C12.6875 29.0255 13.2755 28.4375 14 28.4375C14.7245 28.4375 15.3125 29.0255 15.3125 29.75V35C15.3125 35.581 15.5435 36.1358 15.953 36.547C16.3643 36.9565 16.919 37.1875 17.5 37.1875H32.375C32.956 37.1875 33.5108 36.9565 33.922 36.547C34.3315 36.1358 34.5625 35.581 34.5625 35V7C34.5625 6.419 34.3315 5.86425 33.922 5.453C33.5108 5.0435 32.956 4.8125 32.375 4.8125H17.5C16.919 4.8125 16.3643 5.0435 15.953 5.453C15.5435 5.86425 15.3125 6.419 15.3125 7V12.25C15.3125 12.9745 14.7245 13.5625 14 13.5625C13.2755 13.5625 12.6875 12.9745 12.6875 12.25V7C12.6875 5.72425 13.195 4.49925 14.0963 3.59625C14.9993 2.695 16.2243 2.1875 17.5 2.1875H32.375C33.6508 2.1875 34.8758 2.695 35.7788 3.59625C36.68 4.49925 37.1875 5.72425 37.1875 7V35C37.1875 36.2757 36.68 37.5007 35.7788 38.4037C34.8758 39.305 33.6508 39.8125 32.375 39.8125H17.5C16.2243 39.8125 14.9993 39.305 14.0963 38.4037C13.195 37.5007 12.6875 36.2757 12.6875 35V29.75Z" fill="white"/>
<path fill-rule="evenodd" clip-rule="evenodd" d="M6.125 22.3125C5.4005 22.3125 4.8125 21.7245 4.8125 21C4.8125 20.2755 5.4005 19.6875 6.125 19.6875H24.5C25.2245 19.6875 25.8125 20.2755 25.8125 21C25.8125 21.7245 25.2245 22.3125 24.5 22.3125H6.125Z" fill="white"/>
<path fill-rule="evenodd" clip-rule="evenodd" d="M18.3221 15.8025C17.8093 15.2915 17.8093 14.4585 18.3221 13.9475C18.8331 13.4348 19.6661 13.4348 20.1771 13.9475L26.3021 20.0725C26.8148 20.5853 26.8148 21.4148 26.3021 21.9275L20.1771 28.0525C19.6661 28.5653 18.8331 28.5653 18.3221 28.0525C17.8093 27.5415 17.8093 26.7085 18.3221 26.1975L23.5178 21L18.3221 15.8025Z" fill="white"/>
</svg>
