<svg width="40" height="40" viewBox="0 0 40 40" fill="none" xmlns="http://www.w3.org/2000/svg">
    <g clip-path="url(#clip0_169_12532)">
        <circle cx="20" cy="11" r="8" stroke="white" stroke-width="4"/>
        <mask id="path-2-inside-1_169_12532" fill="white">
            <path d="M36 38C36 36.0302 35.5861 34.0796 34.7821 32.2597C33.978 30.4399 32.7994 28.7863 31.3137 27.3934C29.828 26.0005 28.0641 24.8956 26.1229 24.1418C24.1817 23.388 22.1011 23 20 23C17.8988 23 15.8183 23.388 13.8771 24.1418C11.9359 24.8956 10.172 26.0005 8.68629 27.3934C7.20055 28.7863 6.022 30.4399 5.21793 32.2597C4.41385 34.0796 4 36.0302 4 38L20 38H36Z"/>
        </mask>
        <path d="M36 38C36 36.0302 35.5861 34.0796 34.7821 32.2597C33.978 30.4399 32.7994 28.7863 31.3137 27.3934C29.828 26.0005 28.0641 24.8956 26.1229 24.1418C24.1817 23.388 22.1011 23 20 23C17.8988 23 15.8183 23.388 13.8771 24.1418C11.9359 24.8956 10.172 26.0005 8.68629 27.3934C7.20055 28.7863 6.022 30.4399 5.21793 32.2597C4.41385 34.0796 4 36.0302 4 38L20 38H36Z" stroke="white" stroke-width="8" mask="url(#path-2-inside-1_169_12532)"/>
    </g>
    <defs>
        <clipPath id="clip0_169_12532">
            <rect width="40" height="40" fill="white"/>
        </clipPath>
    </defs>
</svg>
