<svg width="20" height="20" viewBox="0 0 20 20" fill="none" xmlns="http://www.w3.org/2000/svg">
<g clip-path="url(#clip0_407_3576)">
<path d="M15.6894 6.64766C14.7739 5.1523 13.4935 4.83034 12.5808 4.82347C11.8059 4.81782 11.0428 5.03908 10.3711 5.46297L10 5.69536L9.63048 5.46388C8.95711 5.03923 8.19218 4.81782 7.41932 4.82347C6.50639 4.83034 5.22618 5.1523 4.31065 6.64766C3.57274 7.85295 3.55229 9.28072 4.2548 10.565C4.78398 11.5326 5.59086 12.2919 6.37135 13.0263C6.50609 13.1529 10 16.4186 10 16.4186C10 16.4186 13.494 13.1531 13.6287 13.0263C14.4091 12.292 15.2161 11.5326 15.7453 10.565C16.4476 9.28072 16.4274 7.8528 15.6894 6.64766ZM14.7171 10.0026C14.2774 10.8067 13.5393 11.5012 12.8257 12.1729C12.6947 12.296 10.3438 14.4765 10 14.7989C9.65626 14.4765 7.30534 12.296 7.17442 12.1727C6.46077 11.5012 5.7227 10.8067 5.28294 10.0026C4.78764 9.09685 4.79741 8.09694 5.3101 7.25954C5.81959 6.42732 6.53233 6.00191 7.42817 5.99534C7.43504 5.99519 7.44191 5.99519 7.44877 5.99519C7.99031 5.99519 8.52818 6.15404 9.00685 6.45601L10 7.07811L10.9948 6.45509C11.4721 6.15404 12.0098 5.99519 12.5513 5.99519C12.5582 5.99519 12.5652 5.99519 12.5721 5.99534C13.4679 6.00206 14.1805 6.42732 14.69 7.25954C15.2027 8.09694 15.2126 9.09685 14.7171 10.0026Z" fill="#7583AA"/>
<path d="M17.0711 2.92892C15.1823 1.04019 12.6711 0 10 0C7.32895 0 4.81766 1.04019 2.92892 2.92892C1.04019 4.81766 0 7.32895 0 10C0 12.6711 1.04019 15.1823 2.92892 17.0711C4.81766 18.9598 7.32895 20 10 20C12.6711 20 15.1823 18.9598 17.0711 17.0711C18.9598 15.1823 20 12.6711 20 10C20 7.32895 18.9598 4.81766 17.0711 2.92892ZM10 18.8281C5.13214 18.8281 1.17188 14.8679 1.17188 10C1.17188 5.13214 5.13214 1.17188 10 1.17188C14.8679 1.17188 18.8281 5.13214 18.8281 10C18.8281 14.8679 14.8679 18.8281 10 18.8281Z" fill="#7583AA"/>
</g>
<defs>
<clipPath id="clip0_407_3576">
<rect width="20" height="20" fill="white"/>
</clipPath>
</defs>
</svg>
