<svg width="16" height="20" viewBox="0 0 16 20" fill="none" xmlns="http://www.w3.org/2000/svg">
<g clip-path="url(#clip0_332_23531)">
<path d="M14 20H2C1.46957 20 0.960859 19.7893 0.585786 19.4142C0.210714 19.0391 0 18.5304 0 18V2C0 1.46957 0.210714 0.960859 0.585786 0.585786C0.960859 0.210714 1.46957 0 2 0L9 0C9.01 0 9.022 0.002 9.032 0.006C9.04177 0.00901724 9.05182 0.0110277 9.062 0.012C9.15 0.018 9.237 0.035 9.321 0.063L9.349 0.072C9.48381 0.12101 9.60632 0.198815 9.708 0.3L15.708 6.3C15.7918 6.38479 15.8596 6.48406 15.908 6.593C15.918 6.615 15.925 6.638 15.933 6.661L15.942 6.687C15.97 6.77 15.986 6.857 15.991 6.945L15.998 6.972C16 6.982 16 6.991 16 7V18C16 18.5304 15.7893 19.0391 15.4142 19.4142C15.0391 19.7893 14.5304 20 14 20ZM2 2V18H14V8H9C8.73478 8 8.48043 7.89464 8.29289 7.70711C8.10536 7.51957 8 7.26522 8 7V2H2ZM10 3.414V6H12.586L10 3.414Z" fill="#7583AA"/>
</g>
<defs>
<clipPath id="clip0_332_23531">
<rect width="16" height="20" fill="white"/>
</clipPath>
</defs>
</svg>
