<svg width="20" height="20" viewBox="0 0 20 20" fill="none" xmlns="http://www.w3.org/2000/svg">
<g clip-path="url(#clip0_332_23535)">
<path d="M14 0C14.5304 0 15.0391 0.210714 15.4142 0.585786C15.7893 0.960859 16 1.46957 16 2H2V13.177C1.46957 13.177 0.960859 12.9663 0.585786 12.5912C0.210714 12.2161 0 11.7074 0 11.177V2C0 1.46957 0.210714 0.960859 0.585786 0.585786C0.960859 0.210714 1.46957 0 2 0L14 0Z" fill="#7583AA"/>
<path d="M12 20L9.333 17.177H6C5.46957 17.177 4.96086 16.9663 4.58579 16.5912C4.21071 16.2161 4 15.7074 4 15.177V6C4 5.46957 4.21071 4.96086 4.58579 4.58579C4.96086 4.21071 5.46957 4 6 4H18C18.5304 4 19.0391 4.21071 19.4142 4.58579C19.7893 4.96086 20 5.46957 20 6V15.177C20 15.7074 19.7893 16.2161 19.4142 16.5912C19.0391 16.9663 18.5304 17.177 18 17.177H14.667L12 20ZM13.805 15.177H18V6H6V15.177H10.195L12 17.087L13.805 15.177Z" fill="#7583AA"/>
</g>
<defs>
<clipPath id="clip0_332_23535">
<rect width="20" height="20" fill="white"/>
</clipPath>
</defs>
</svg>
