<svg width="48" height="51" viewBox="0 0 48 51" fill="none" xmlns="http://www.w3.org/2000/svg"><path d="M8.407 14.815c-1.458 0-2.78-.314-3.966-.942a7.29 7.29 0 01-2.78-2.64C.993 10.102.66 8.827.66 7.408c0-1.418.334-2.687 1.002-3.806a7.093 7.093 0 012.78-2.64C5.627.322 6.956 0 8.428 0c1.24 0 2.358.218 3.353.655a6.717 6.717 0 012.535 1.882l-2.127 1.965c-.967-1.119-2.166-1.678-3.598-1.678-.885 0-1.676.198-2.371.593-.695.382-1.24.921-1.635 1.617-.382.695-.573 1.487-.573 2.373 0 .887.19 1.678.573 2.374.395.696.94 1.241 1.635 1.637.695.382 1.486.573 2.371.573 1.432 0 2.63-.566 3.599-1.698l2.126 1.964a6.627 6.627 0 01-2.535 1.903c-1.009.436-2.133.655-3.374.655zM25.03 14.815c-1.486 0-2.829-.32-4.028-.962a7.251 7.251 0 01-2.801-2.64c-.668-1.132-1.002-2.4-1.002-3.806 0-1.405.334-2.667 1.002-3.785a7.203 7.203 0 012.8-2.66C22.202.32 23.545 0 25.03 0c1.486 0 2.821.32 4.007.962a7.203 7.203 0 012.8 2.66c.682 1.118 1.023 2.38 1.023 3.785 0 1.405-.34 2.674-1.022 3.806a7.251 7.251 0 01-2.801 2.64c-1.186.641-2.521.962-4.007.962zM38.66 2.906V6.69h7.239v2.66h-7.24v5.218h-3.311V.246h11.43v2.66H38.66zM7.83 33.03c-1.486 0-2.828-.32-4.028-.962a7.251 7.251 0 01-2.8-2.64C.334 28.298 0 27.029 0 25.624c0-1.405.334-2.667 1.002-3.786a7.202 7.202 0 012.8-2.66c1.2-.641 2.542-.962 4.028-.962 1.485 0 2.821.321 4.007.962a7.202 7.202 0 012.8 2.66c.682 1.119 1.023 2.38 1.023 3.786 0 1.405-.341 2.674-1.023 3.806a7.25 7.25 0 01-2.8 2.64c-1.186.64-2.522.961-4.007.961zM24.507 33.03c-2.045 0-3.64-.566-4.784-1.698-1.131-1.133-1.697-2.749-1.697-4.85v-8.021h3.312v7.898c0 2.565 1.063 3.847 3.19 3.847 1.035 0 1.825-.307 2.37-.92.546-.628.818-1.603.818-2.927v-7.898h3.271v8.021c0 2.101-.572 3.718-1.717 4.85-1.131 1.132-2.719 1.698-4.763 1.698zM48 18.461v14.324h-2.719l-7.135-8.697v8.697h-3.27V18.46h2.739l7.114 8.696v-8.696H48zM1.17 36.676h6.5c1.554 0 2.924.3 4.11.9 1.2.587 2.126 1.42 2.78 2.497.668 1.078 1.002 2.333 1.002 3.765 0 1.433-.334 2.688-1.002 3.765-.654 1.078-1.58 1.917-2.78 2.517-1.186.587-2.556.88-4.11.88h-6.5V36.676zM30.986 48.34V51H18.059V36.676H30.72v2.66h-9.37v3.11h8.491v2.579h-8.49v3.315h9.635zM43.97 51l-2.76-3.99H38.164V51h-3.312V36.676h6.194c1.268 0 2.365.212 3.292.635.94.423 1.662 1.023 2.167 1.8.504.778.756 1.699.756 2.763 0 1.064-.259 1.985-.777 2.762-.504.764-1.227 1.35-2.167 1.76L47.527 51H43.97z" fill="#7583AA"/></svg>
